<?xml version="1.0" encoding="utf-8" standalone="no"?>
<!DOCTYPE svg PUBLIC "-//W3C//DTD SVG 1.1//EN"
  "http://www.w3.org/Graphics/SVG/1.1/DTD/svg11.dtd">
<svg xmlns:xlink="http://www.w3.org/1999/xlink" width="460.479375pt" height="317.13275pt" viewBox="0 0 460.479375 317.13275" xmlns="http://www.w3.org/2000/svg" version="1.1">
 <metadata>
  <rdf:RDF xmlns:dc="http://purl.org/dc/elements/1.1/" xmlns:cc="http://creativecommons.org/ns#" xmlns:rdf="http://www.w3.org/1999/02/22-rdf-syntax-ns#">
   <cc:Work>
    <dc:type rdf:resource="http://purl.org/dc/dcmitype/StillImage"/>
    <dc:date>2026-04-20T03:07:27.800226</dc:date>
    <dc:format>image/svg+xml</dc:format>
    <dc:creator>
     <cc:Agent>
      <dc:title>Matplotlib v3.10.8, https://matplotlib.org/</dc:title>
     </cc:Agent>
    </dc:creator>
   </cc:Work>
  </rdf:RDF>
 </metadata>
 <defs>
  <style type="text/css">*{stroke-linejoin: round; stroke-linecap: butt}</style>
 </defs>
 <g id="figure_1">
  <g id="patch_1">
   <path d="M 0 317.13275 
L 460.479375 317.13275 
L 460.479375 0 
L 0 0 
z
" style="fill: #ffffff"/>
  </g>
  <g id="axes_1">
   <g id="patch_2">
    <path d="M 56.109375 277.66 
L 453.279375 277.66 
L 453.279375 7.2 
L 56.109375 7.2 
z
" style="fill: #ffffff"/>
   </g>
   <g id="patch_3">
    <path d="M 74.162557 277.66 
L 98.233466 277.66 
L 98.233466 172.382458 
L 74.162557 172.382458 
z
" clip-path="url(#p4930305645)" style="fill: #d1e5f0; stroke: #ffffff; stroke-width: 0.3; stroke-linejoin: miter"/>
   </g>
   <g id="patch_4">
    <path d="M 218.588011 277.66 
L 242.65892 277.66 
L 242.65892 133.979134 
L 218.588011 133.979134 
z
" clip-path="url(#p4930305645)" style="fill: #d1e5f0; stroke: #ffffff; stroke-width: 0.3; stroke-linejoin: miter"/>
   </g>
   <g id="patch_5">
    <path d="M 363.013466 277.66 
L 387.084375 277.66 
L 387.084375 113.257258 
L 363.013466 113.257258 
z
" clip-path="url(#p4930305645)" style="fill: #d1e5f0; stroke: #ffffff; stroke-width: 0.3; stroke-linejoin: miter"/>
   </g>
   <g id="patch_6">
    <path d="M 98.233466 277.66 
L 122.304375 277.66 
L 122.304375 214.27631 
L 98.233466 214.27631 
z
" clip-path="url(#p4930305645)" style="fill: #67a9cf; stroke: #ffffff; stroke-width: 0.3; stroke-linejoin: miter"/>
   </g>
   <g id="patch_7">
    <path d="M 242.65892 277.66 
L 266.72983 277.66 
L 266.72983 211.722218 
L 242.65892 211.722218 
z
" clip-path="url(#p4930305645)" style="fill: #67a9cf; stroke: #ffffff; stroke-width: 0.3; stroke-linejoin: miter"/>
   </g>
   <g id="patch_8">
    <path d="M 387.084375 277.66 
L 411.155284 277.66 
L 411.155284 190.08218 
L 387.084375 190.08218 
z
" clip-path="url(#p4930305645)" style="fill: #67a9cf; stroke: #ffffff; stroke-width: 0.3; stroke-linejoin: miter"/>
   </g>
   <g id="patch_9">
    <path d="M 122.304375 277.66 
L 146.375284 277.66 
L 146.375284 269.53258 
L 122.304375 269.53258 
z
" clip-path="url(#p4930305645)" style="fill: #2166ac; stroke: #ffffff; stroke-width: 0.3; stroke-linejoin: miter"/>
   </g>
   <g id="patch_10">
    <path d="M 266.72983 277.66 
L 290.800739 277.66 
L 290.800739 271.415911 
L 266.72983 271.415911 
z
" clip-path="url(#p4930305645)" style="fill: #2166ac; stroke: #ffffff; stroke-width: 0.3; stroke-linejoin: miter"/>
   </g>
   <g id="patch_11">
    <path d="M 411.155284 277.66 
L 435.226193 277.66 
L 435.226193 268.591291 
L 411.155284 268.591291 
z
" clip-path="url(#p4930305645)" style="fill: #2166ac; stroke: #ffffff; stroke-width: 0.3; stroke-linejoin: miter"/>
   </g>
   <g id="matplotlib.axis_1">
    <g id="xtick_1">
     <g id="line2d_1">
      <defs>
       <path id="m93f06728bc" d="M 0 0 
L 0 3 
" style="stroke: #000000; stroke-width: 0.6"/>
      </defs>
      <g>
       <use xlink:href="#m93f06728bc" x="110.26892" y="277.66" style="stroke: #000000; stroke-width: 0.6"/>
      </g>
     </g>
     <g id="text_1">
      <!-- 1 human reviewer -->
      <g transform="translate(73.38517 290.23875) scale(0.08 -0.08)">
       <defs>
        <path id="DejaVuSerif-31" d="M 909 0 
L 909 331 
L 1722 331 
L 1722 4213 
L 781 3603 
L 781 4013 
L 1919 4750 
L 2350 4750 
L 2350 331 
L 3163 331 
L 3163 0 
L 909 0 
z
" transform="scale(0.015625)"/>
        <path id="DejaVuSerif-20" transform="scale(0.015625)"/>
        <path id="DejaVuSerif-68" d="M 263 0 
L 263 331 
L 781 331 
L 781 4531 
L 231 4531 
L 231 4863 
L 1356 4863 
L 1356 2731 
Q 1516 3069 1770 3241 
Q 2025 3413 2363 3413 
Q 2913 3413 3172 3097 
Q 3431 2781 3431 2113 
L 3431 331 
L 3944 331 
L 3944 0 
L 2356 0 
L 2356 331 
L 2853 331 
L 2853 1931 
Q 2853 2541 2704 2764 
Q 2556 2988 2175 2988 
Q 1775 2988 1565 2697 
Q 1356 2406 1356 1850 
L 1356 331 
L 1856 331 
L 1856 0 
L 263 0 
z
" transform="scale(0.015625)"/>
        <path id="DejaVuSerif-75" d="M 2266 3322 
L 3341 3322 
L 3341 331 
L 3884 331 
L 3884 0 
L 2766 0 
L 2766 588 
Q 2606 256 2353 82 
Q 2100 -91 1766 -91 
Q 1213 -91 952 223 
Q 691 538 691 1209 
L 691 2988 
L 172 2988 
L 172 3322 
L 1269 3322 
L 1269 1388 
Q 1269 781 1417 556 
Q 1566 331 1947 331 
Q 2347 331 2556 625 
Q 2766 919 2766 1478 
L 2766 2988 
L 2266 2988 
L 2266 3322 
z
" transform="scale(0.015625)"/>
        <path id="DejaVuSerif-6d" d="M 3316 2675 
Q 3481 3041 3739 3227 
Q 3997 3413 4341 3413 
Q 4863 3413 5119 3089 
Q 5375 2766 5375 2113 
L 5375 331 
L 5894 331 
L 5894 0 
L 4300 0 
L 4300 331 
L 4800 331 
L 4800 2047 
Q 4800 2556 4650 2772 
Q 4500 2988 4153 2988 
Q 3769 2988 3567 2697 
Q 3366 2406 3366 1850 
L 3366 331 
L 3866 331 
L 3866 0 
L 2291 0 
L 2291 331 
L 2791 331 
L 2791 2069 
Q 2791 2566 2641 2777 
Q 2491 2988 2144 2988 
Q 1759 2988 1557 2697 
Q 1356 2406 1356 1850 
L 1356 331 
L 1856 331 
L 1856 0 
L 263 0 
L 263 331 
L 781 331 
L 781 2994 
L 231 2994 
L 231 3322 
L 1356 3322 
L 1356 2731 
Q 1516 3063 1762 3238 
Q 2009 3413 2322 3413 
Q 2709 3413 2968 3220 
Q 3228 3028 3316 2675 
z
" transform="scale(0.015625)"/>
        <path id="DejaVuSerif-61" d="M 2547 1044 
L 2547 1747 
L 1806 1747 
Q 1378 1747 1168 1562 
Q 959 1378 959 997 
Q 959 650 1171 447 
Q 1384 244 1747 244 
Q 2106 244 2326 466 
Q 2547 688 2547 1044 
z
M 3122 2075 
L 3122 331 
L 3634 331 
L 3634 0 
L 2547 0 
L 2547 359 
Q 2356 128 2106 18 
Q 1856 -91 1522 -91 
Q 969 -91 644 203 
Q 319 497 319 997 
Q 319 1513 691 1797 
Q 1063 2081 1741 2081 
L 2547 2081 
L 2547 2309 
Q 2547 2688 2317 2895 
Q 2088 3103 1672 3103 
Q 1328 3103 1125 2947 
Q 922 2791 872 2484 
L 575 2484 
L 575 3156 
Q 875 3284 1158 3348 
Q 1441 3413 1709 3413 
Q 2400 3413 2761 3070 
Q 3122 2728 3122 2075 
z
" transform="scale(0.015625)"/>
        <path id="DejaVuSerif-6e" d="M 263 0 
L 263 331 
L 781 331 
L 781 2988 
L 231 2988 
L 231 3322 
L 1356 3322 
L 1356 2731 
Q 1516 3069 1770 3241 
Q 2025 3413 2363 3413 
Q 2913 3413 3172 3097 
Q 3431 2781 3431 2113 
L 3431 331 
L 3944 331 
L 3944 0 
L 2356 0 
L 2356 331 
L 2853 331 
L 2853 1931 
Q 2853 2541 2703 2767 
Q 2553 2994 2175 2994 
Q 1775 2994 1565 2701 
Q 1356 2409 1356 1850 
L 1356 331 
L 1856 331 
L 1856 0 
L 263 0 
z
" transform="scale(0.015625)"/>
        <path id="DejaVuSerif-72" d="M 3059 3328 
L 3059 2497 
L 2728 2497 
Q 2713 2744 2591 2866 
Q 2469 2988 2234 2988 
Q 1809 2988 1582 2694 
Q 1356 2400 1356 1850 
L 1356 331 
L 2022 331 
L 2022 0 
L 263 0 
L 263 331 
L 781 331 
L 781 2994 
L 231 2994 
L 231 3322 
L 1356 3322 
L 1356 2731 
Q 1525 3078 1790 3245 
Q 2056 3413 2438 3413 
Q 2578 3413 2733 3391 
Q 2888 3369 3059 3328 
z
" transform="scale(0.015625)"/>
        <path id="DejaVuSerif-65" d="M 3469 1600 
L 991 1600 
L 991 1575 
Q 991 903 1244 561 
Q 1497 219 1991 219 
Q 2369 219 2611 417 
Q 2853 616 2950 1006 
L 3413 1006 
Q 3275 459 2904 184 
Q 2534 -91 1931 -91 
Q 1203 -91 761 389 
Q 319 869 319 1663 
Q 319 2450 753 2931 
Q 1188 3413 1894 3413 
Q 2647 3413 3050 2948 
Q 3453 2484 3469 1600 
z
M 2791 1931 
Q 2772 2513 2545 2808 
Q 2319 3103 1894 3103 
Q 1497 3103 1269 2806 
Q 1041 2509 991 1931 
L 2791 1931 
z
" transform="scale(0.015625)"/>
        <path id="DejaVuSerif-76" d="M 1581 0 
L 359 2988 
L -19 2988 
L -19 3322 
L 1509 3322 
L 1509 2988 
L 978 2988 
L 1913 703 
L 2847 2988 
L 2350 2988 
L 2350 3322 
L 3597 3322 
L 3597 2988 
L 3225 2988 
L 2003 0 
L 1581 0 
z
" transform="scale(0.015625)"/>
        <path id="DejaVuSerif-69" d="M 622 4353 
Q 622 4497 726 4603 
Q 831 4709 978 4709 
Q 1122 4709 1226 4603 
Q 1331 4497 1331 4353 
Q 1331 4206 1228 4103 
Q 1125 4000 978 4000 
Q 831 4000 726 4103 
Q 622 4206 622 4353 
z
M 1356 331 
L 1900 331 
L 1900 0 
L 231 0 
L 231 331 
L 781 331 
L 781 2988 
L 231 2988 
L 231 3322 
L 1356 3322 
L 1356 331 
z
" transform="scale(0.015625)"/>
        <path id="DejaVuSerif-77" d="M 3072 3322 
L 3922 728 
L 4672 2988 
L 4191 2988 
L 4191 3322 
L 5394 3322 
L 5394 2988 
L 5025 2988 
L 4038 0 
L 3559 0 
L 2741 2484 
L 1919 0 
L 1459 0 
L 475 2988 
L 103 2988 
L 103 3322 
L 1606 3322 
L 1606 2988 
L 1069 2988 
L 1813 728 
L 2669 3322 
L 3072 3322 
z
" transform="scale(0.015625)"/>
       </defs>
       <use xlink:href="#DejaVuSerif-31"/>
       <use xlink:href="#DejaVuSerif-20" transform="translate(63.623047 0)"/>
       <use xlink:href="#DejaVuSerif-68" transform="translate(95.410156 0)"/>
       <use xlink:href="#DejaVuSerif-75" transform="translate(159.814453 0)"/>
       <use xlink:href="#DejaVuSerif-6d" transform="translate(224.21875 0)"/>
       <use xlink:href="#DejaVuSerif-61" transform="translate(319.042969 0)"/>
       <use xlink:href="#DejaVuSerif-6e" transform="translate(378.662109 0)"/>
       <use xlink:href="#DejaVuSerif-20" transform="translate(443.066406 0)"/>
       <use xlink:href="#DejaVuSerif-72" transform="translate(474.853516 0)"/>
       <use xlink:href="#DejaVuSerif-65" transform="translate(522.65625 0)"/>
       <use xlink:href="#DejaVuSerif-76" transform="translate(581.835938 0)"/>
       <use xlink:href="#DejaVuSerif-69" transform="translate(638.330078 0)"/>
       <use xlink:href="#DejaVuSerif-65" transform="translate(670.3125 0)"/>
       <use xlink:href="#DejaVuSerif-77" transform="translate(729.492188 0)"/>
       <use xlink:href="#DejaVuSerif-65" transform="translate(815.087891 0)"/>
       <use xlink:href="#DejaVuSerif-72" transform="translate(874.267578 0)"/>
      </g>
      <!-- covered by -->
      <g transform="translate(88.06142 299.197) scale(0.08 -0.08)">
       <defs>
        <path id="DejaVuSerif-63" d="M 3291 997 
Q 3169 466 2822 187 
Q 2475 -91 1925 -91 
Q 1200 -91 759 389 
Q 319 869 319 1663 
Q 319 2459 759 2936 
Q 1200 3413 1925 3413 
Q 2241 3413 2553 3339 
Q 2866 3266 3181 3116 
L 3181 2266 
L 2847 2266 
Q 2781 2703 2561 2903 
Q 2341 3103 1931 3103 
Q 1466 3103 1228 2742 
Q 991 2381 991 1663 
Q 991 944 1227 581 
Q 1463 219 1931 219 
Q 2303 219 2525 412 
Q 2747 606 2828 997 
L 3291 997 
z
" transform="scale(0.015625)"/>
        <path id="DejaVuSerif-6f" d="M 1925 219 
Q 2388 219 2623 584 
Q 2859 950 2859 1663 
Q 2859 2375 2623 2739 
Q 2388 3103 1925 3103 
Q 1463 3103 1227 2739 
Q 991 2375 991 1663 
Q 991 950 1228 584 
Q 1466 219 1925 219 
z
M 1925 -91 
Q 1200 -91 759 389 
Q 319 869 319 1663 
Q 319 2456 758 2934 
Q 1197 3413 1925 3413 
Q 2653 3413 3092 2934 
Q 3531 2456 3531 1663 
Q 3531 869 3092 389 
Q 2653 -91 1925 -91 
z
" transform="scale(0.015625)"/>
        <path id="DejaVuSerif-64" d="M 3359 331 
L 3909 331 
L 3909 0 
L 2784 0 
L 2784 519 
Q 2616 206 2355 57 
Q 2094 -91 1709 -91 
Q 1097 -91 708 395 
Q 319 881 319 1663 
Q 319 2444 706 2928 
Q 1094 3413 1709 3413 
Q 2094 3413 2355 3264 
Q 2616 3116 2784 2803 
L 2784 4531 
L 2241 4531 
L 2241 4863 
L 3359 4863 
L 3359 331 
z
M 2784 1497 
L 2784 1825 
Q 2784 2422 2554 2737 
Q 2325 3053 1888 3053 
Q 1444 3053 1217 2703 
Q 991 2353 991 1663 
Q 991 975 1217 622 
Q 1444 269 1888 269 
Q 2325 269 2554 583 
Q 2784 897 2784 1497 
z
" transform="scale(0.015625)"/>
        <path id="DejaVuSerif-62" d="M 738 331 
L 738 4531 
L 184 4531 
L 184 4863 
L 1313 4863 
L 1313 2803 
Q 1481 3116 1742 3264 
Q 2003 3413 2388 3413 
Q 3000 3413 3387 2928 
Q 3775 2444 3775 1663 
Q 3775 881 3387 395 
Q 3000 -91 2388 -91 
Q 2003 -91 1742 57 
Q 1481 206 1313 519 
L 1313 0 
L 184 0 
L 184 331 
L 738 331 
z
M 1313 1497 
Q 1313 897 1542 583 
Q 1772 269 2209 269 
Q 2650 269 2876 622 
Q 3103 975 3103 1663 
Q 3103 2353 2876 2703 
Q 2650 3053 2209 3053 
Q 1772 3053 1542 2737 
Q 1313 2422 1313 1825 
L 1313 1497 
z
" transform="scale(0.015625)"/>
        <path id="DejaVuSerif-79" d="M 1381 -609 
L 1600 -56 
L 359 2988 
L -19 2988 
L -19 3322 
L 1509 3322 
L 1509 2988 
L 978 2988 
L 1913 703 
L 2847 2988 
L 2350 2988 
L 2350 3322 
L 3597 3322 
L 3597 2988 
L 3225 2988 
L 1703 -750 
Q 1547 -1138 1356 -1280 
Q 1166 -1422 819 -1422 
Q 672 -1422 517 -1397 
Q 363 -1372 206 -1325 
L 206 -691 
L 500 -691 
Q 519 -903 608 -995 
Q 697 -1088 884 -1088 
Q 1056 -1088 1161 -992 
Q 1266 -897 1381 -609 
z
" transform="scale(0.015625)"/>
       </defs>
       <use xlink:href="#DejaVuSerif-63"/>
       <use xlink:href="#DejaVuSerif-6f" transform="translate(56.005859 0)"/>
       <use xlink:href="#DejaVuSerif-76" transform="translate(116.210938 0)"/>
       <use xlink:href="#DejaVuSerif-65" transform="translate(172.705078 0)"/>
       <use xlink:href="#DejaVuSerif-72" transform="translate(231.884766 0)"/>
       <use xlink:href="#DejaVuSerif-65" transform="translate(279.6875 0)"/>
       <use xlink:href="#DejaVuSerif-64" transform="translate(338.867188 0)"/>
       <use xlink:href="#DejaVuSerif-20" transform="translate(402.880859 0)"/>
       <use xlink:href="#DejaVuSerif-62" transform="translate(434.667969 0)"/>
       <use xlink:href="#DejaVuSerif-79" transform="translate(498.681641 0)"/>
      </g>
      <!-- 1 human reviewer -->
      <g transform="translate(73.38517 308.269) scale(0.08 -0.08)">
       <use xlink:href="#DejaVuSerif-31"/>
       <use xlink:href="#DejaVuSerif-20" transform="translate(63.623047 0)"/>
       <use xlink:href="#DejaVuSerif-68" transform="translate(95.410156 0)"/>
       <use xlink:href="#DejaVuSerif-75" transform="translate(159.814453 0)"/>
       <use xlink:href="#DejaVuSerif-6d" transform="translate(224.21875 0)"/>
       <use xlink:href="#DejaVuSerif-61" transform="translate(319.042969 0)"/>
       <use xlink:href="#DejaVuSerif-6e" transform="translate(378.662109 0)"/>
       <use xlink:href="#DejaVuSerif-20" transform="translate(443.066406 0)"/>
       <use xlink:href="#DejaVuSerif-72" transform="translate(474.853516 0)"/>
       <use xlink:href="#DejaVuSerif-65" transform="translate(522.65625 0)"/>
       <use xlink:href="#DejaVuSerif-76" transform="translate(581.835938 0)"/>
       <use xlink:href="#DejaVuSerif-69" transform="translate(638.330078 0)"/>
       <use xlink:href="#DejaVuSerif-65" transform="translate(670.3125 0)"/>
       <use xlink:href="#DejaVuSerif-77" transform="translate(729.492188 0)"/>
       <use xlink:href="#DejaVuSerif-65" transform="translate(815.087891 0)"/>
       <use xlink:href="#DejaVuSerif-72" transform="translate(874.267578 0)"/>
      </g>
     </g>
    </g>
    <g id="xtick_2">
     <g id="line2d_2">
      <g>
       <use xlink:href="#m93f06728bc" x="254.694375" y="277.66" style="stroke: #000000; stroke-width: 0.6"/>
      </g>
     </g>
     <g id="text_2">
      <!-- 1 human reviewer -->
      <g transform="translate(217.810625 290.23875) scale(0.08 -0.08)">
       <use xlink:href="#DejaVuSerif-31"/>
       <use xlink:href="#DejaVuSerif-20" transform="translate(63.623047 0)"/>
       <use xlink:href="#DejaVuSerif-68" transform="translate(95.410156 0)"/>
       <use xlink:href="#DejaVuSerif-75" transform="translate(159.814453 0)"/>
       <use xlink:href="#DejaVuSerif-6d" transform="translate(224.21875 0)"/>
       <use xlink:href="#DejaVuSerif-61" transform="translate(319.042969 0)"/>
       <use xlink:href="#DejaVuSerif-6e" transform="translate(378.662109 0)"/>
       <use xlink:href="#DejaVuSerif-20" transform="translate(443.066406 0)"/>
       <use xlink:href="#DejaVuSerif-72" transform="translate(474.853516 0)"/>
       <use xlink:href="#DejaVuSerif-65" transform="translate(522.65625 0)"/>
       <use xlink:href="#DejaVuSerif-76" transform="translate(581.835938 0)"/>
       <use xlink:href="#DejaVuSerif-69" transform="translate(638.330078 0)"/>
       <use xlink:href="#DejaVuSerif-65" transform="translate(670.3125 0)"/>
       <use xlink:href="#DejaVuSerif-77" transform="translate(729.492188 0)"/>
       <use xlink:href="#DejaVuSerif-65" transform="translate(815.087891 0)"/>
       <use xlink:href="#DejaVuSerif-72" transform="translate(874.267578 0)"/>
      </g>
      <!-- covered by -->
      <g transform="translate(232.486875 299.197) scale(0.08 -0.08)">
       <use xlink:href="#DejaVuSerif-63"/>
       <use xlink:href="#DejaVuSerif-6f" transform="translate(56.005859 0)"/>
       <use xlink:href="#DejaVuSerif-76" transform="translate(116.210938 0)"/>
       <use xlink:href="#DejaVuSerif-65" transform="translate(172.705078 0)"/>
       <use xlink:href="#DejaVuSerif-72" transform="translate(231.884766 0)"/>
       <use xlink:href="#DejaVuSerif-65" transform="translate(279.6875 0)"/>
       <use xlink:href="#DejaVuSerif-64" transform="translate(338.867188 0)"/>
       <use xlink:href="#DejaVuSerif-20" transform="translate(402.880859 0)"/>
       <use xlink:href="#DejaVuSerif-62" transform="translate(434.667969 0)"/>
       <use xlink:href="#DejaVuSerif-79" transform="translate(498.681641 0)"/>
      </g>
      <!-- 1 AI model -->
      <g transform="translate(232.729375 308.269) scale(0.08 -0.08)">
       <defs>
        <path id="DejaVuSerif-41" d="M 1281 1691 
L 2994 1691 
L 2138 3909 
L 1281 1691 
z
M -38 0 
L -38 331 
L 372 331 
L 2034 4666 
L 2559 4666 
L 4225 331 
L 4684 331 
L 4684 0 
L 2988 0 
L 2988 331 
L 3506 331 
L 3116 1356 
L 1153 1356 
L 763 331 
L 1275 331 
L 1275 0 
L -38 0 
z
" transform="scale(0.015625)"/>
        <path id="DejaVuSerif-49" d="M 1581 331 
L 2175 331 
L 2175 0 
L 353 0 
L 353 331 
L 947 331 
L 947 4331 
L 353 4331 
L 353 4666 
L 2175 4666 
L 2175 4331 
L 1581 4331 
L 1581 331 
z
" transform="scale(0.015625)"/>
        <path id="DejaVuSerif-6c" d="M 1313 331 
L 1856 331 
L 1856 0 
L 184 0 
L 184 331 
L 738 331 
L 738 4531 
L 184 4531 
L 184 4863 
L 1313 4863 
L 1313 331 
z
" transform="scale(0.015625)"/>
       </defs>
       <use xlink:href="#DejaVuSerif-31"/>
       <use xlink:href="#DejaVuSerif-20" transform="translate(63.623047 0)"/>
       <use xlink:href="#DejaVuSerif-41" transform="translate(95.410156 0)"/>
       <use xlink:href="#DejaVuSerif-49" transform="translate(167.626953 0)"/>
       <use xlink:href="#DejaVuSerif-20" transform="translate(207.128906 0)"/>
       <use xlink:href="#DejaVuSerif-6d" transform="translate(238.916016 0)"/>
       <use xlink:href="#DejaVuSerif-6f" transform="translate(333.740234 0)"/>
       <use xlink:href="#DejaVuSerif-64" transform="translate(393.945312 0)"/>
       <use xlink:href="#DejaVuSerif-65" transform="translate(457.958984 0)"/>
       <use xlink:href="#DejaVuSerif-6c" transform="translate(517.138672 0)"/>
      </g>
     </g>
    </g>
    <g id="xtick_3">
     <g id="line2d_3">
      <g>
       <use xlink:href="#m93f06728bc" x="399.11983" y="277.66" style="stroke: #000000; stroke-width: 0.6"/>
      </g>
     </g>
     <g id="text_3">
      <!-- 3 human reviewers -->
      <g transform="translate(360.18358 290.23875) scale(0.08 -0.08)">
       <defs>
        <path id="DejaVuSerif-33" d="M 622 4469 
Q 988 4606 1323 4678 
Q 1659 4750 1953 4750 
Q 2638 4750 3022 4454 
Q 3406 4159 3406 3634 
Q 3406 3213 3140 2930 
Q 2875 2647 2388 2547 
Q 2963 2466 3280 2130 
Q 3597 1794 3597 1259 
Q 3597 606 3158 257 
Q 2719 -91 1894 -91 
Q 1528 -91 1179 -12 
Q 831 66 488 225 
L 488 1131 
L 838 1131 
Q 869 681 1141 450 
Q 1413 219 1906 219 
Q 2384 219 2661 495 
Q 2938 772 2938 1253 
Q 2938 1803 2653 2086 
Q 2369 2369 1819 2369 
L 1522 2369 
L 1522 2688 
L 1678 2688 
Q 2225 2688 2498 2914 
Q 2772 3141 2772 3597 
Q 2772 4006 2547 4223 
Q 2322 4441 1900 4441 
Q 1478 4441 1245 4241 
Q 1013 4041 972 3647 
L 622 3647 
L 622 4469 
z
" transform="scale(0.015625)"/>
        <path id="DejaVuSerif-73" d="M 359 184 
L 359 959 
L 691 959 
Q 703 588 923 403 
Q 1144 219 1575 219 
Q 1963 219 2166 364 
Q 2369 509 2369 788 
Q 2369 1006 2220 1140 
Q 2072 1275 1594 1428 
L 1178 1569 
Q 750 1706 558 1912 
Q 366 2119 366 2438 
Q 366 2894 700 3153 
Q 1034 3413 1625 3413 
Q 1888 3413 2178 3344 
Q 2469 3275 2778 3144 
L 2778 2419 
L 2447 2419 
Q 2434 2741 2221 2922 
Q 2009 3103 1644 3103 
Q 1281 3103 1095 2975 
Q 909 2847 909 2591 
Q 909 2381 1050 2254 
Q 1191 2128 1613 1997 
L 2069 1856 
Q 2541 1709 2748 1489 
Q 2956 1269 2956 922 
Q 2956 450 2595 179 
Q 2234 -91 1600 -91 
Q 1278 -91 972 -22 
Q 666 47 359 184 
z
" transform="scale(0.015625)"/>
       </defs>
       <use xlink:href="#DejaVuSerif-33"/>
       <use xlink:href="#DejaVuSerif-20" transform="translate(63.623047 0)"/>
       <use xlink:href="#DejaVuSerif-68" transform="translate(95.410156 0)"/>
       <use xlink:href="#DejaVuSerif-75" transform="translate(159.814453 0)"/>
       <use xlink:href="#DejaVuSerif-6d" transform="translate(224.21875 0)"/>
       <use xlink:href="#DejaVuSerif-61" transform="translate(319.042969 0)"/>
       <use xlink:href="#DejaVuSerif-6e" transform="translate(378.662109 0)"/>
       <use xlink:href="#DejaVuSerif-20" transform="translate(443.066406 0)"/>
       <use xlink:href="#DejaVuSerif-72" transform="translate(474.853516 0)"/>
       <use xlink:href="#DejaVuSerif-65" transform="translate(522.65625 0)"/>
       <use xlink:href="#DejaVuSerif-76" transform="translate(581.835938 0)"/>
       <use xlink:href="#DejaVuSerif-69" transform="translate(638.330078 0)"/>
       <use xlink:href="#DejaVuSerif-65" transform="translate(670.3125 0)"/>
       <use xlink:href="#DejaVuSerif-77" transform="translate(729.492188 0)"/>
       <use xlink:href="#DejaVuSerif-65" transform="translate(815.087891 0)"/>
       <use xlink:href="#DejaVuSerif-72" transform="translate(874.267578 0)"/>
       <use xlink:href="#DejaVuSerif-73" transform="translate(922.070312 0)"/>
      </g>
      <!-- covered by -->
      <g transform="translate(376.91233 299.197) scale(0.08 -0.08)">
       <use xlink:href="#DejaVuSerif-63"/>
       <use xlink:href="#DejaVuSerif-6f" transform="translate(56.005859 0)"/>
       <use xlink:href="#DejaVuSerif-76" transform="translate(116.210938 0)"/>
       <use xlink:href="#DejaVuSerif-65" transform="translate(172.705078 0)"/>
       <use xlink:href="#DejaVuSerif-72" transform="translate(231.884766 0)"/>
       <use xlink:href="#DejaVuSerif-65" transform="translate(279.6875 0)"/>
       <use xlink:href="#DejaVuSerif-64" transform="translate(338.867188 0)"/>
       <use xlink:href="#DejaVuSerif-20" transform="translate(402.880859 0)"/>
       <use xlink:href="#DejaVuSerif-62" transform="translate(434.667969 0)"/>
       <use xlink:href="#DejaVuSerif-79" transform="translate(498.681641 0)"/>
      </g>
      <!-- 3 AI models -->
      <g transform="translate(375.10233 308.269) scale(0.08 -0.08)">
       <use xlink:href="#DejaVuSerif-33"/>
       <use xlink:href="#DejaVuSerif-20" transform="translate(63.623047 0)"/>
       <use xlink:href="#DejaVuSerif-41" transform="translate(95.410156 0)"/>
       <use xlink:href="#DejaVuSerif-49" transform="translate(167.626953 0)"/>
       <use xlink:href="#DejaVuSerif-20" transform="translate(207.128906 0)"/>
       <use xlink:href="#DejaVuSerif-6d" transform="translate(238.916016 0)"/>
       <use xlink:href="#DejaVuSerif-6f" transform="translate(333.740234 0)"/>
       <use xlink:href="#DejaVuSerif-64" transform="translate(393.945312 0)"/>
       <use xlink:href="#DejaVuSerif-65" transform="translate(457.958984 0)"/>
       <use xlink:href="#DejaVuSerif-6c" transform="translate(517.138672 0)"/>
       <use xlink:href="#DejaVuSerif-73" transform="translate(549.121094 0)"/>
      </g>
     </g>
    </g>
   </g>
   <g id="matplotlib.axis_2">
    <g id="ytick_1">
     <g id="line2d_4">
      <defs>
       <path id="mf839f7bc43" d="M 0 0 
L -3 0 
" style="stroke: #000000; stroke-width: 0.6"/>
      </defs>
      <g>
       <use xlink:href="#mf839f7bc43" x="56.109375" y="277.66" style="stroke: #000000; stroke-width: 0.6"/>
      </g>
     </g>
     <g id="text_4">
      <!-- 0% -->
      <g transform="translate(33.745313 281.459219) scale(0.1 -0.1)">
       <defs>
        <path id="DejaVuSerif-30" d="M 2034 219 
Q 2513 219 2750 744 
Q 2988 1269 2988 2328 
Q 2988 3391 2750 3916 
Q 2513 4441 2034 4441 
Q 1556 4441 1318 3916 
Q 1081 3391 1081 2328 
Q 1081 1269 1318 744 
Q 1556 219 2034 219 
z
M 2034 -91 
Q 1275 -91 848 546 
Q 422 1184 422 2328 
Q 422 3475 848 4112 
Q 1275 4750 2034 4750 
Q 2797 4750 3222 4112 
Q 3647 3475 3647 2328 
Q 3647 1184 3222 546 
Q 2797 -91 2034 -91 
z
" transform="scale(0.015625)"/>
        <path id="DejaVuSerif-25" d="M 1434 4459 
Q 1159 4459 1004 4200 
Q 850 3941 850 3475 
Q 850 3016 1008 2753 
Q 1166 2491 1434 2491 
Q 1700 2491 1854 2752 
Q 2009 3013 2009 3475 
Q 2009 3938 1854 4198 
Q 1700 4459 1434 4459 
z
M 4653 2169 
Q 4381 2169 4226 1906 
Q 4072 1644 4072 1178 
Q 4072 719 4228 458 
Q 4384 197 4653 197 
Q 4922 197 5075 458 
Q 5228 719 5228 1178 
Q 5228 1641 5073 1905 
Q 4919 2169 4653 2169 
z
M 4653 2450 
Q 5147 2450 5437 2106 
Q 5728 1763 5728 1178 
Q 5728 594 5436 251 
Q 5144 -91 4653 -91 
Q 4153 -91 3862 251 
Q 3572 594 3572 1178 
Q 3572 1766 3864 2108 
Q 4156 2450 4653 2450 
z
M 4263 4750 
L 4738 4750 
L 1819 -91 
L 1344 -91 
L 4263 4750 
z
M 1428 4750 
Q 1922 4750 2215 4408 
Q 2509 4066 2509 3481 
Q 2509 2891 2217 2550 
Q 1925 2209 1428 2209 
Q 931 2209 642 2551 
Q 353 2894 353 3481 
Q 353 4063 643 4406 
Q 934 4750 1428 4750 
z
" transform="scale(0.015625)"/>
       </defs>
       <use xlink:href="#DejaVuSerif-30"/>
       <use xlink:href="#DejaVuSerif-25" transform="translate(63.623047 0)"/>
      </g>
     </g>
    </g>
    <g id="ytick_2">
     <g id="line2d_5">
      <g>
       <use xlink:href="#mf839f7bc43" x="56.109375" y="227.574815" style="stroke: #000000; stroke-width: 0.6"/>
      </g>
     </g>
     <g id="text_5">
      <!-- 20% -->
      <g transform="translate(27.382813 231.374034) scale(0.1 -0.1)">
       <defs>
        <path id="DejaVuSerif-32" d="M 819 3553 
L 469 3553 
L 469 4384 
Q 803 4563 1142 4656 
Q 1481 4750 1806 4750 
Q 2534 4750 2956 4397 
Q 3378 4044 3378 3438 
Q 3378 2753 2422 1800 
Q 2347 1728 2309 1691 
L 1131 513 
L 3078 513 
L 3078 1088 
L 3444 1088 
L 3444 0 
L 434 0 
L 434 341 
L 1850 1753 
Q 2319 2222 2519 2614 
Q 2719 3006 2719 3438 
Q 2719 3909 2473 4175 
Q 2228 4441 1797 4441 
Q 1350 4441 1106 4219 
Q 863 3997 819 3553 
z
" transform="scale(0.015625)"/>
       </defs>
       <use xlink:href="#DejaVuSerif-32"/>
       <use xlink:href="#DejaVuSerif-30" transform="translate(63.623047 0)"/>
       <use xlink:href="#DejaVuSerif-25" transform="translate(127.246094 0)"/>
      </g>
     </g>
    </g>
    <g id="ytick_3">
     <g id="line2d_6">
      <g>
       <use xlink:href="#mf839f7bc43" x="56.109375" y="177.48963" style="stroke: #000000; stroke-width: 0.6"/>
      </g>
     </g>
     <g id="text_6">
      <!-- 40% -->
      <g transform="translate(27.382813 181.288848) scale(0.1 -0.1)">
       <defs>
        <path id="DejaVuSerif-34" d="M 2234 1581 
L 2234 4063 
L 641 1581 
L 2234 1581 
z
M 3609 0 
L 1484 0 
L 1484 331 
L 2234 331 
L 2234 1247 
L 197 1247 
L 197 1588 
L 2241 4750 
L 2859 4750 
L 2859 1581 
L 3750 1581 
L 3750 1247 
L 2859 1247 
L 2859 331 
L 3609 331 
L 3609 0 
z
" transform="scale(0.015625)"/>
       </defs>
       <use xlink:href="#DejaVuSerif-34"/>
       <use xlink:href="#DejaVuSerif-30" transform="translate(63.623047 0)"/>
       <use xlink:href="#DejaVuSerif-25" transform="translate(127.246094 0)"/>
      </g>
     </g>
    </g>
    <g id="ytick_4">
     <g id="line2d_7">
      <g>
       <use xlink:href="#mf839f7bc43" x="56.109375" y="127.404444" style="stroke: #000000; stroke-width: 0.6"/>
      </g>
     </g>
     <g id="text_7">
      <!-- 60% -->
      <g transform="translate(27.382813 131.203663) scale(0.1 -0.1)">
       <defs>
        <path id="DejaVuSerif-36" d="M 2094 219 
Q 2534 219 2771 542 
Q 3009 866 3009 1472 
Q 3009 2078 2771 2401 
Q 2534 2725 2094 2725 
Q 1647 2725 1412 2412 
Q 1178 2100 1178 1509 
Q 1178 888 1415 553 
Q 1653 219 2094 219 
z
M 1075 2569 
Q 1288 2803 1556 2918 
Q 1825 3034 2163 3034 
Q 2859 3034 3264 2615 
Q 3669 2197 3669 1472 
Q 3669 763 3233 336 
Q 2797 -91 2069 -91 
Q 1278 -91 853 498 
Q 428 1088 428 2181 
Q 428 3406 931 4078 
Q 1434 4750 2350 4750 
Q 2597 4750 2869 4703 
Q 3141 4656 3425 4563 
L 3425 3794 
L 3072 3794 
Q 3034 4109 2831 4275 
Q 2628 4441 2284 4441 
Q 1678 4441 1381 3981 
Q 1084 3522 1075 2569 
z
" transform="scale(0.015625)"/>
       </defs>
       <use xlink:href="#DejaVuSerif-36"/>
       <use xlink:href="#DejaVuSerif-30" transform="translate(63.623047 0)"/>
       <use xlink:href="#DejaVuSerif-25" transform="translate(127.246094 0)"/>
      </g>
     </g>
    </g>
    <g id="ytick_5">
     <g id="line2d_8">
      <g>
       <use xlink:href="#mf839f7bc43" x="56.109375" y="77.319259" style="stroke: #000000; stroke-width: 0.6"/>
      </g>
     </g>
     <g id="text_8">
      <!-- 80% -->
      <g transform="translate(27.382813 81.118478) scale(0.1 -0.1)">
       <defs>
        <path id="DejaVuSerif-38" d="M 2981 1275 
Q 2981 1775 2732 2051 
Q 2484 2328 2034 2328 
Q 1584 2328 1336 2051 
Q 1088 1775 1088 1275 
Q 1088 772 1336 495 
Q 1584 219 2034 219 
Q 2484 219 2732 495 
Q 2981 772 2981 1275 
z
M 2853 3541 
Q 2853 3966 2637 4203 
Q 2422 4441 2034 4441 
Q 1650 4441 1433 4203 
Q 1216 3966 1216 3541 
Q 1216 3113 1433 2875 
Q 1650 2638 2034 2638 
Q 2422 2638 2637 2875 
Q 2853 3113 2853 3541 
z
M 2516 2484 
Q 3047 2413 3344 2092 
Q 3641 1772 3641 1275 
Q 3641 619 3225 264 
Q 2809 -91 2034 -91 
Q 1263 -91 845 264 
Q 428 619 428 1275 
Q 428 1772 725 2092 
Q 1022 2413 1556 2484 
Q 1084 2569 832 2842 
Q 581 3116 581 3541 
Q 581 4103 968 4426 
Q 1356 4750 2034 4750 
Q 2713 4750 3100 4426 
Q 3488 4103 3488 3541 
Q 3488 3116 3236 2842 
Q 2984 2569 2516 2484 
z
" transform="scale(0.015625)"/>
       </defs>
       <use xlink:href="#DejaVuSerif-38"/>
       <use xlink:href="#DejaVuSerif-30" transform="translate(63.623047 0)"/>
       <use xlink:href="#DejaVuSerif-25" transform="translate(127.246094 0)"/>
      </g>
     </g>
    </g>
    <g id="ytick_6">
     <g id="line2d_9">
      <g>
       <use xlink:href="#mf839f7bc43" x="56.109375" y="27.234074" style="stroke: #000000; stroke-width: 0.6"/>
      </g>
     </g>
     <g id="text_9">
      <!-- 100% -->
      <g transform="translate(21.020313 31.033293) scale(0.1 -0.1)">
       <use xlink:href="#DejaVuSerif-31"/>
       <use xlink:href="#DejaVuSerif-30" transform="translate(63.623047 0)"/>
       <use xlink:href="#DejaVuSerif-30" transform="translate(127.246094 0)"/>
       <use xlink:href="#DejaVuSerif-25" transform="translate(190.869141 0)"/>
      </g>
     </g>
    </g>
    <g id="text_10">
     <!-- Coverage (fraction of items) -->
     <g transform="translate(14.798438 213.847188) rotate(-90) scale(0.1 -0.1)">
      <defs>
       <path id="DejaVuSerif-43" d="M 4513 1234 
Q 4306 581 3820 245 
Q 3334 -91 2591 -91 
Q 2134 -91 1743 65 
Q 1353 222 1050 525 
Q 700 875 529 1320 
Q 359 1766 359 2328 
Q 359 3416 987 4083 
Q 1616 4750 2644 4750 
Q 3025 4750 3456 4650 
Q 3888 4550 4384 4347 
L 4384 3272 
L 4031 3272 
Q 3916 3859 3567 4137 
Q 3219 4416 2591 4416 
Q 1844 4416 1459 3886 
Q 1075 3356 1075 2328 
Q 1075 1303 1459 773 
Q 1844 244 2591 244 
Q 3113 244 3450 492 
Q 3788 741 3938 1234 
L 4513 1234 
z
" transform="scale(0.015625)"/>
       <path id="DejaVuSerif-67" d="M 3359 2988 
L 3359 72 
Q 3359 -644 2965 -1033 
Q 2572 -1422 1844 -1422 
Q 1516 -1422 1216 -1362 
Q 916 -1303 641 -1184 
L 641 -488 
L 941 -488 
Q 997 -813 1206 -963 
Q 1416 -1113 1806 -1113 
Q 2313 -1113 2548 -827 
Q 2784 -541 2784 72 
L 2784 519 
Q 2616 206 2355 57 
Q 2094 -91 1709 -91 
Q 1097 -91 708 395 
Q 319 881 319 1663 
Q 319 2444 706 2928 
Q 1094 3413 1709 3413 
Q 2094 3413 2355 3264 
Q 2616 3116 2784 2803 
L 2784 3322 
L 3909 3322 
L 3909 2988 
L 3359 2988 
z
M 2784 1825 
Q 2784 2422 2554 2737 
Q 2325 3053 1888 3053 
Q 1444 3053 1217 2703 
Q 991 2353 991 1663 
Q 991 975 1217 622 
Q 1444 269 1888 269 
Q 2325 269 2554 583 
Q 2784 897 2784 1497 
L 2784 1825 
z
" transform="scale(0.015625)"/>
       <path id="DejaVuSerif-28" d="M 2041 -997 
Q 1281 -656 893 83 
Q 506 822 506 1931 
Q 506 3044 893 3783 
Q 1281 4522 2041 4863 
L 2041 4556 
Q 1559 4225 1350 3623 
Q 1141 3022 1141 1931 
Q 1141 844 1350 242 
Q 1559 -359 2041 -691 
L 2041 -997 
z
" transform="scale(0.015625)"/>
       <path id="DejaVuSerif-66" d="M 2753 4078 
L 2450 4078 
Q 2447 4313 2317 4434 
Q 2188 4556 1941 4556 
Q 1619 4556 1487 4379 
Q 1356 4203 1356 3750 
L 1356 3322 
L 2284 3322 
L 2284 2988 
L 1356 2988 
L 1356 331 
L 2094 331 
L 2094 0 
L 231 0 
L 231 331 
L 781 331 
L 781 2988 
L 231 2988 
L 231 3322 
L 781 3322 
L 781 3738 
Q 781 4294 1070 4578 
Q 1359 4863 1919 4863 
Q 2128 4863 2337 4825 
Q 2547 4788 2753 4709 
L 2753 4078 
z
" transform="scale(0.015625)"/>
       <path id="DejaVuSerif-74" d="M 691 2988 
L 184 2988 
L 184 3322 
L 691 3322 
L 691 4353 
L 1269 4353 
L 1269 3322 
L 2350 3322 
L 2350 2988 
L 1269 2988 
L 1269 878 
Q 1269 456 1350 337 
Q 1431 219 1650 219 
Q 1875 219 1978 351 
Q 2081 484 2088 781 
L 2522 781 
Q 2497 328 2275 118 
Q 2053 -91 1600 -91 
Q 1103 -91 897 129 
Q 691 350 691 878 
L 691 2988 
z
" transform="scale(0.015625)"/>
       <path id="DejaVuSerif-29" d="M 453 -997 
L 453 -691 
Q 934 -359 1145 242 
Q 1356 844 1356 1931 
Q 1356 3022 1145 3623 
Q 934 4225 453 4556 
L 453 4863 
Q 1216 4522 1603 3783 
Q 1991 3044 1991 1931 
Q 1991 822 1603 83 
Q 1216 -656 453 -997 
z
" transform="scale(0.015625)"/>
      </defs>
      <use xlink:href="#DejaVuSerif-43"/>
      <use xlink:href="#DejaVuSerif-6f" transform="translate(76.513672 0)"/>
      <use xlink:href="#DejaVuSerif-76" transform="translate(136.71875 0)"/>
      <use xlink:href="#DejaVuSerif-65" transform="translate(193.212891 0)"/>
      <use xlink:href="#DejaVuSerif-72" transform="translate(252.392578 0)"/>
      <use xlink:href="#DejaVuSerif-61" transform="translate(300.195312 0)"/>
      <use xlink:href="#DejaVuSerif-67" transform="translate(359.814453 0)"/>
      <use xlink:href="#DejaVuSerif-65" transform="translate(423.828125 0)"/>
      <use xlink:href="#DejaVuSerif-20" transform="translate(483.007812 0)"/>
      <use xlink:href="#DejaVuSerif-28" transform="translate(514.794922 0)"/>
      <use xlink:href="#DejaVuSerif-66" transform="translate(553.808594 0)"/>
      <use xlink:href="#DejaVuSerif-72" transform="translate(590.820312 0)"/>
      <use xlink:href="#DejaVuSerif-61" transform="translate(638.623047 0)"/>
      <use xlink:href="#DejaVuSerif-63" transform="translate(698.242188 0)"/>
      <use xlink:href="#DejaVuSerif-74" transform="translate(754.248047 0)"/>
      <use xlink:href="#DejaVuSerif-69" transform="translate(794.433594 0)"/>
      <use xlink:href="#DejaVuSerif-6f" transform="translate(826.416016 0)"/>
      <use xlink:href="#DejaVuSerif-6e" transform="translate(886.621094 0)"/>
      <use xlink:href="#DejaVuSerif-20" transform="translate(951.025391 0)"/>
      <use xlink:href="#DejaVuSerif-6f" transform="translate(982.8125 0)"/>
      <use xlink:href="#DejaVuSerif-66" transform="translate(1043.017578 0)"/>
      <use xlink:href="#DejaVuSerif-20" transform="translate(1080.029297 0)"/>
      <use xlink:href="#DejaVuSerif-69" transform="translate(1111.816406 0)"/>
      <use xlink:href="#DejaVuSerif-74" transform="translate(1143.798828 0)"/>
      <use xlink:href="#DejaVuSerif-65" transform="translate(1183.984375 0)"/>
      <use xlink:href="#DejaVuSerif-6d" transform="translate(1243.164062 0)"/>
      <use xlink:href="#DejaVuSerif-73" transform="translate(1337.988281 0)"/>
      <use xlink:href="#DejaVuSerif-29" transform="translate(1389.306641 0)"/>
     </g>
    </g>
   </g>
   <g id="LineCollection_1">
    <path d="M 86.198011 179.773544 
L 86.198011 165.567848 
" clip-path="url(#p4930305645)" style="fill: none; stroke: #000000; stroke-width: 0.8"/>
    <path d="M 230.623466 144.004316 
L 230.623466 124.149846 
" clip-path="url(#p4930305645)" style="fill: none; stroke: #000000; stroke-width: 0.8"/>
    <path d="M 375.04892 126.171222 
L 375.04892 100.483639 
" clip-path="url(#p4930305645)" style="fill: none; stroke: #000000; stroke-width: 0.8"/>
   </g>
   <g id="line2d_10">
    <defs>
     <path id="m571d2aee7d" d="M 3 0 
L -3 -0 
" style="stroke: #000000"/>
    </defs>
    <g clip-path="url(#p4930305645)">
     <use xlink:href="#m571d2aee7d" x="86.198011" y="179.773544" style="fill: #1f77b4; stroke: #000000"/>
     <use xlink:href="#m571d2aee7d" x="230.623466" y="144.004316" style="fill: #1f77b4; stroke: #000000"/>
     <use xlink:href="#m571d2aee7d" x="375.04892" y="126.171222" style="fill: #1f77b4; stroke: #000000"/>
    </g>
   </g>
   <g id="line2d_11">
    <g clip-path="url(#p4930305645)">
     <use xlink:href="#m571d2aee7d" x="86.198011" y="165.567848" style="fill: #1f77b4; stroke: #000000"/>
     <use xlink:href="#m571d2aee7d" x="230.623466" y="124.149846" style="fill: #1f77b4; stroke: #000000"/>
     <use xlink:href="#m571d2aee7d" x="375.04892" y="100.483639" style="fill: #1f77b4; stroke: #000000"/>
    </g>
   </g>
   <g id="LineCollection_2">
    <path d="M 110.26892 220.681352 
L 110.26892 207.763079 
" clip-path="url(#p4930305645)" style="fill: none; stroke: #000000; stroke-width: 0.8"/>
    <path d="M 254.694375 219.421292 
L 254.694375 203.572051 
" clip-path="url(#p4930305645)" style="fill: none; stroke: #000000; stroke-width: 0.8"/>
    <path d="M 399.11983 201.011937 
L 399.11983 177.748228 
" clip-path="url(#p4930305645)" style="fill: none; stroke: #000000; stroke-width: 0.8"/>
   </g>
   <g id="line2d_12">
    <g clip-path="url(#p4930305645)">
     <use xlink:href="#m571d2aee7d" x="110.26892" y="220.681352" style="fill: #1f77b4; stroke: #000000"/>
     <use xlink:href="#m571d2aee7d" x="254.694375" y="219.421292" style="fill: #1f77b4; stroke: #000000"/>
     <use xlink:href="#m571d2aee7d" x="399.11983" y="201.011937" style="fill: #1f77b4; stroke: #000000"/>
    </g>
   </g>
   <g id="line2d_13">
    <g clip-path="url(#p4930305645)">
     <use xlink:href="#m571d2aee7d" x="110.26892" y="207.763079" style="fill: #1f77b4; stroke: #000000"/>
     <use xlink:href="#m571d2aee7d" x="254.694375" y="203.572051" style="fill: #1f77b4; stroke: #000000"/>
     <use xlink:href="#m571d2aee7d" x="399.11983" y="177.748228" style="fill: #1f77b4; stroke: #000000"/>
    </g>
   </g>
   <g id="LineCollection_3">
    <path d="M 134.33983 271.877253 
L 134.33983 267.03975 
" clip-path="url(#p4930305645)" style="fill: none; stroke: #000000; stroke-width: 0.8"/>
    <path d="M 278.765284 273.649751 
L 278.765284 268.829489 
" clip-path="url(#p4930305645)" style="fill: none; stroke: #000000; stroke-width: 0.8"/>
    <path d="M 423.190739 271.07306 
L 423.190739 265.685012 
" clip-path="url(#p4930305645)" style="fill: none; stroke: #000000; stroke-width: 0.8"/>
   </g>
   <g id="line2d_14">
    <g clip-path="url(#p4930305645)">
     <use xlink:href="#m571d2aee7d" x="134.33983" y="271.877253" style="fill: #1f77b4; stroke: #000000"/>
     <use xlink:href="#m571d2aee7d" x="278.765284" y="273.649751" style="fill: #1f77b4; stroke: #000000"/>
     <use xlink:href="#m571d2aee7d" x="423.190739" y="271.07306" style="fill: #1f77b4; stroke: #000000"/>
    </g>
   </g>
   <g id="line2d_15">
    <g clip-path="url(#p4930305645)">
     <use xlink:href="#m571d2aee7d" x="134.33983" y="267.03975" style="fill: #1f77b4; stroke: #000000"/>
     <use xlink:href="#m571d2aee7d" x="278.765284" y="268.829489" style="fill: #1f77b4; stroke: #000000"/>
     <use xlink:href="#m571d2aee7d" x="423.190739" y="265.685012" style="fill: #1f77b4; stroke: #000000"/>
    </g>
   </g>
   <g id="patch_12">
    <path d="M 56.109375 277.66 
L 56.109375 7.2 
" style="fill: none; stroke: #000000; stroke-width: 0.6; stroke-linejoin: miter; stroke-linecap: square"/>
   </g>
   <g id="patch_13">
    <path d="M 56.109375 277.66 
L 453.279375 277.66 
" style="fill: none; stroke: #000000; stroke-width: 0.6; stroke-linejoin: miter; stroke-linecap: square"/>
   </g>
   <g id="text_11">
    <!-- 42.0% -->
    <g transform="translate(75.079496 159.103549) scale(0.07 -0.07)">
     <defs>
      <path id="DejaVuSerif-2e" d="M 603 325 
Q 603 500 722 622 
Q 841 744 1019 744 
Q 1191 744 1312 622 
Q 1434 500 1434 325 
Q 1434 153 1312 31 
Q 1191 -91 1019 -91 
Q 841 -91 722 29 
Q 603 150 603 325 
z
" transform="scale(0.015625)"/>
     </defs>
     <use xlink:href="#DejaVuSerif-34"/>
     <use xlink:href="#DejaVuSerif-32" transform="translate(63.623047 0)"/>
     <use xlink:href="#DejaVuSerif-2e" transform="translate(127.246094 0)"/>
     <use xlink:href="#DejaVuSerif-30" transform="translate(159.033203 0)"/>
     <use xlink:href="#DejaVuSerif-25" transform="translate(222.65625 0)"/>
    </g>
   </g>
   <g id="text_12">
    <!-- 57.4% -->
    <g transform="translate(219.50495 117.685546) scale(0.07 -0.07)">
     <defs>
      <path id="DejaVuSerif-35" d="M 3219 4666 
L 3219 4153 
L 1081 4153 
L 1081 2816 
Q 1244 2928 1461 2984 
Q 1678 3041 1947 3041 
Q 2703 3041 3140 2622 
Q 3578 2203 3578 1478 
Q 3578 738 3136 323 
Q 2694 -91 1894 -91 
Q 1572 -91 1234 -12 
Q 897 66 544 225 
L 544 1131 
L 897 1131 
Q 925 688 1179 453 
Q 1434 219 1894 219 
Q 2388 219 2653 544 
Q 2919 869 2919 1478 
Q 2919 2084 2655 2407 
Q 2391 2731 1894 2731 
Q 1613 2731 1398 2631 
Q 1184 2531 1019 2322 
L 750 2322 
L 750 4666 
L 3219 4666 
z
" transform="scale(0.015625)"/>
      <path id="DejaVuSerif-37" d="M 3609 4347 
L 1784 0 
L 1319 0 
L 3059 4153 
L 903 4153 
L 903 3578 
L 538 3578 
L 538 4666 
L 3609 4666 
L 3609 4347 
z
" transform="scale(0.015625)"/>
     </defs>
     <use xlink:href="#DejaVuSerif-35"/>
     <use xlink:href="#DejaVuSerif-37" transform="translate(63.623047 0)"/>
     <use xlink:href="#DejaVuSerif-2e" transform="translate(127.246094 0)"/>
     <use xlink:href="#DejaVuSerif-34" transform="translate(159.033203 0)"/>
     <use xlink:href="#DejaVuSerif-25" transform="translate(222.65625 0)"/>
    </g>
   </g>
   <g id="text_13">
    <!-- 65.6% -->
    <g transform="translate(363.930405 94.019339) scale(0.07 -0.07)">
     <use xlink:href="#DejaVuSerif-36"/>
     <use xlink:href="#DejaVuSerif-35" transform="translate(63.623047 0)"/>
     <use xlink:href="#DejaVuSerif-2e" transform="translate(127.246094 0)"/>
     <use xlink:href="#DejaVuSerif-36" transform="translate(159.033203 0)"/>
     <use xlink:href="#DejaVuSerif-25" transform="translate(222.65625 0)"/>
    </g>
   </g>
   <g id="text_14">
    <!-- 25.3% -->
    <g transform="translate(99.150405 201.298779) scale(0.07 -0.07)">
     <use xlink:href="#DejaVuSerif-32"/>
     <use xlink:href="#DejaVuSerif-35" transform="translate(63.623047 0)"/>
     <use xlink:href="#DejaVuSerif-2e" transform="translate(127.246094 0)"/>
     <use xlink:href="#DejaVuSerif-33" transform="translate(159.033203 0)"/>
     <use xlink:href="#DejaVuSerif-25" transform="translate(222.65625 0)"/>
    </g>
   </g>
   <g id="text_15">
    <!-- 26.3% -->
    <g transform="translate(243.575859 197.107751) scale(0.07 -0.07)">
     <use xlink:href="#DejaVuSerif-32"/>
     <use xlink:href="#DejaVuSerif-36" transform="translate(63.623047 0)"/>
     <use xlink:href="#DejaVuSerif-2e" transform="translate(127.246094 0)"/>
     <use xlink:href="#DejaVuSerif-33" transform="translate(159.033203 0)"/>
     <use xlink:href="#DejaVuSerif-25" transform="translate(222.65625 0)"/>
    </g>
   </g>
   <g id="text_16">
    <!-- 35.0% -->
    <g transform="translate(388.001314 171.283929) scale(0.07 -0.07)">
     <use xlink:href="#DejaVuSerif-33"/>
     <use xlink:href="#DejaVuSerif-35" transform="translate(63.623047 0)"/>
     <use xlink:href="#DejaVuSerif-2e" transform="translate(127.246094 0)"/>
     <use xlink:href="#DejaVuSerif-30" transform="translate(159.033203 0)"/>
     <use xlink:href="#DejaVuSerif-25" transform="translate(222.65625 0)"/>
    </g>
   </g>
   <g id="text_17">
    <!-- 3.2% -->
    <g transform="translate(125.448189 260.575451) scale(0.07 -0.07)">
     <use xlink:href="#DejaVuSerif-33"/>
     <use xlink:href="#DejaVuSerif-2e" transform="translate(63.623047 0)"/>
     <use xlink:href="#DejaVuSerif-32" transform="translate(95.410156 0)"/>
     <use xlink:href="#DejaVuSerif-25" transform="translate(159.033203 0)"/>
    </g>
   </g>
   <g id="text_18">
    <!-- 2.5% -->
    <g transform="translate(269.873643 262.365189) scale(0.07 -0.07)">
     <use xlink:href="#DejaVuSerif-32"/>
     <use xlink:href="#DejaVuSerif-2e" transform="translate(63.623047 0)"/>
     <use xlink:href="#DejaVuSerif-35" transform="translate(95.410156 0)"/>
     <use xlink:href="#DejaVuSerif-25" transform="translate(159.033203 0)"/>
    </g>
   </g>
   <g id="text_19">
    <!-- 3.6% -->
    <g transform="translate(414.299098 259.220712) scale(0.07 -0.07)">
     <use xlink:href="#DejaVuSerif-33"/>
     <use xlink:href="#DejaVuSerif-2e" transform="translate(63.623047 0)"/>
     <use xlink:href="#DejaVuSerif-36" transform="translate(95.410156 0)"/>
     <use xlink:href="#DejaVuSerif-25" transform="translate(159.033203 0)"/>
    </g>
   </g>
   <g id="legend_1">
    <g id="patch_14">
     <path d="M 60.109375 75.70225 
L 150.556875 75.70225 
L 150.556875 11.2 
L 60.109375 11.2 
z
" style="fill: #ffffff; opacity: 0.8; stroke: #cccccc; stroke-linejoin: miter"/>
    </g>
    <g id="patch_15">
     <path d="M 63.309375 20.47875 
L 79.309375 20.47875 
L 79.309375 14.87875 
L 63.309375 14.87875 
z
" style="fill: #d1e5f0; stroke: #ffffff; stroke-width: 0.3; stroke-linejoin: miter"/>
    </g>
    <g id="text_20">
     <!-- Same issue -->
     <g transform="translate(85.709375 20.47875) scale(0.08 -0.08)">
      <defs>
       <path id="DejaVuSerif-53" d="M 594 225 
L 594 1288 
L 953 1284 
Q 969 753 1261 498 
Q 1553 244 2150 244 
Q 2706 244 2998 464 
Q 3291 684 3291 1106 
Q 3291 1444 3114 1625 
Q 2938 1806 2369 1978 
L 1753 2163 
Q 1084 2366 811 2669 
Q 538 2972 538 3500 
Q 538 4094 959 4422 
Q 1381 4750 2144 4750 
Q 2469 4750 2856 4679 
Q 3244 4609 3681 4475 
L 3681 3481 
L 3328 3481 
Q 3275 3975 2998 4195 
Q 2722 4416 2156 4416 
Q 1663 4416 1405 4214 
Q 1147 4013 1147 3628 
Q 1147 3294 1340 3103 
Q 1534 2913 2163 2725 
L 2741 2553 
Q 3375 2363 3645 2067 
Q 3916 1772 3916 1275 
Q 3916 597 3481 253 
Q 3047 -91 2188 -91 
Q 1803 -91 1404 -12 
Q 1006 66 594 225 
z
" transform="scale(0.015625)"/>
      </defs>
      <use xlink:href="#DejaVuSerif-53"/>
      <use xlink:href="#DejaVuSerif-61" transform="translate(68.505859 0)"/>
      <use xlink:href="#DejaVuSerif-6d" transform="translate(128.125 0)"/>
      <use xlink:href="#DejaVuSerif-65" transform="translate(222.949219 0)"/>
      <use xlink:href="#DejaVuSerif-20" transform="translate(282.128906 0)"/>
      <use xlink:href="#DejaVuSerif-69" transform="translate(313.916016 0)"/>
      <use xlink:href="#DejaVuSerif-73" transform="translate(345.898438 0)"/>
      <use xlink:href="#DejaVuSerif-73" transform="translate(397.216797 0)"/>
      <use xlink:href="#DejaVuSerif-75" transform="translate(448.535156 0)"/>
      <use xlink:href="#DejaVuSerif-65" transform="translate(512.939453 0)"/>
     </g>
    </g>
    <g id="patch_16">
     <path d="M 63.309375 37.53225 
L 79.309375 37.53225 
L 79.309375 31.93225 
L 63.309375 31.93225 
z
" style="fill: #67a9cf; stroke: #ffffff; stroke-width: 0.3; stroke-linejoin: miter"/>
    </g>
    <g id="text_21">
     <!-- Same issue, -->
     <g transform="translate(85.709375 32.22125) scale(0.08 -0.08)">
      <defs>
       <path id="DejaVuSerif-2c" d="M 231 -622 
Q 525 -406 662 -114 
Q 800 178 800 594 
L 800 709 
L 1416 709 
Q 1391 175 1164 -208 
Q 938 -591 481 -872 
L 231 -622 
z
" transform="scale(0.015625)"/>
      </defs>
      <use xlink:href="#DejaVuSerif-53"/>
      <use xlink:href="#DejaVuSerif-61" transform="translate(68.505859 0)"/>
      <use xlink:href="#DejaVuSerif-6d" transform="translate(128.125 0)"/>
      <use xlink:href="#DejaVuSerif-65" transform="translate(222.949219 0)"/>
      <use xlink:href="#DejaVuSerif-20" transform="translate(282.128906 0)"/>
      <use xlink:href="#DejaVuSerif-69" transform="translate(313.916016 0)"/>
      <use xlink:href="#DejaVuSerif-73" transform="translate(345.898438 0)"/>
      <use xlink:href="#DejaVuSerif-73" transform="translate(397.216797 0)"/>
      <use xlink:href="#DejaVuSerif-75" transform="translate(448.535156 0)"/>
      <use xlink:href="#DejaVuSerif-65" transform="translate(512.939453 0)"/>
      <use xlink:href="#DejaVuSerif-2c" transform="translate(572.119141 0)"/>
     </g>
     <!-- same criticism -->
     <g transform="translate(85.709375 41.1795) scale(0.08 -0.08)">
      <use xlink:href="#DejaVuSerif-73"/>
      <use xlink:href="#DejaVuSerif-61" transform="translate(51.318359 0)"/>
      <use xlink:href="#DejaVuSerif-6d" transform="translate(110.9375 0)"/>
      <use xlink:href="#DejaVuSerif-65" transform="translate(205.761719 0)"/>
      <use xlink:href="#DejaVuSerif-20" transform="translate(264.941406 0)"/>
      <use xlink:href="#DejaVuSerif-63" transform="translate(296.728516 0)"/>
      <use xlink:href="#DejaVuSerif-72" transform="translate(352.734375 0)"/>
      <use xlink:href="#DejaVuSerif-69" transform="translate(400.537109 0)"/>
      <use xlink:href="#DejaVuSerif-74" transform="translate(432.519531 0)"/>
      <use xlink:href="#DejaVuSerif-69" transform="translate(472.705078 0)"/>
      <use xlink:href="#DejaVuSerif-63" transform="translate(504.6875 0)"/>
      <use xlink:href="#DejaVuSerif-69" transform="translate(560.693359 0)"/>
      <use xlink:href="#DejaVuSerif-73" transform="translate(592.675781 0)"/>
      <use xlink:href="#DejaVuSerif-6d" transform="translate(643.994141 0)"/>
     </g>
    </g>
    <g id="patch_17">
     <path d="M 63.309375 62.712125 
L 79.309375 62.712125 
L 79.309375 57.112125 
L 63.309375 57.112125 
z
" style="fill: #2166ac; stroke: #ffffff; stroke-width: 0.3; stroke-linejoin: miter"/>
    </g>
    <g id="text_22">
     <!-- Same issue, -->
     <g transform="translate(85.709375 52.922) scale(0.08 -0.08)">
      <use xlink:href="#DejaVuSerif-53"/>
      <use xlink:href="#DejaVuSerif-61" transform="translate(68.505859 0)"/>
      <use xlink:href="#DejaVuSerif-6d" transform="translate(128.125 0)"/>
      <use xlink:href="#DejaVuSerif-65" transform="translate(222.949219 0)"/>
      <use xlink:href="#DejaVuSerif-20" transform="translate(282.128906 0)"/>
      <use xlink:href="#DejaVuSerif-69" transform="translate(313.916016 0)"/>
      <use xlink:href="#DejaVuSerif-73" transform="translate(345.898438 0)"/>
      <use xlink:href="#DejaVuSerif-73" transform="translate(397.216797 0)"/>
      <use xlink:href="#DejaVuSerif-75" transform="translate(448.535156 0)"/>
      <use xlink:href="#DejaVuSerif-65" transform="translate(512.939453 0)"/>
      <use xlink:href="#DejaVuSerif-2c" transform="translate(572.119141 0)"/>
     </g>
     <!-- same criticism, -->
     <g transform="translate(85.709375 61.88025) scale(0.08 -0.08)">
      <use xlink:href="#DejaVuSerif-73"/>
      <use xlink:href="#DejaVuSerif-61" transform="translate(51.318359 0)"/>
      <use xlink:href="#DejaVuSerif-6d" transform="translate(110.9375 0)"/>
      <use xlink:href="#DejaVuSerif-65" transform="translate(205.761719 0)"/>
      <use xlink:href="#DejaVuSerif-20" transform="translate(264.941406 0)"/>
      <use xlink:href="#DejaVuSerif-63" transform="translate(296.728516 0)"/>
      <use xlink:href="#DejaVuSerif-72" transform="translate(352.734375 0)"/>
      <use xlink:href="#DejaVuSerif-69" transform="translate(400.537109 0)"/>
      <use xlink:href="#DejaVuSerif-74" transform="translate(432.519531 0)"/>
      <use xlink:href="#DejaVuSerif-69" transform="translate(472.705078 0)"/>
      <use xlink:href="#DejaVuSerif-63" transform="translate(504.6875 0)"/>
      <use xlink:href="#DejaVuSerif-69" transform="translate(560.693359 0)"/>
      <use xlink:href="#DejaVuSerif-73" transform="translate(592.675781 0)"/>
      <use xlink:href="#DejaVuSerif-6d" transform="translate(643.994141 0)"/>
      <use xlink:href="#DejaVuSerif-2c" transform="translate(738.818359 0)"/>
     </g>
     <!-- same evidence -->
     <g transform="translate(85.709375 70.8385) scale(0.08 -0.08)">
      <use xlink:href="#DejaVuSerif-73"/>
      <use xlink:href="#DejaVuSerif-61" transform="translate(51.318359 0)"/>
      <use xlink:href="#DejaVuSerif-6d" transform="translate(110.9375 0)"/>
      <use xlink:href="#DejaVuSerif-65" transform="translate(205.761719 0)"/>
      <use xlink:href="#DejaVuSerif-20" transform="translate(264.941406 0)"/>
      <use xlink:href="#DejaVuSerif-65" transform="translate(296.728516 0)"/>
      <use xlink:href="#DejaVuSerif-76" transform="translate(355.908203 0)"/>
      <use xlink:href="#DejaVuSerif-69" transform="translate(412.402344 0)"/>
      <use xlink:href="#DejaVuSerif-64" transform="translate(444.384766 0)"/>
      <use xlink:href="#DejaVuSerif-65" transform="translate(508.398438 0)"/>
      <use xlink:href="#DejaVuSerif-6e" transform="translate(567.578125 0)"/>
      <use xlink:href="#DejaVuSerif-63" transform="translate(631.982422 0)"/>
      <use xlink:href="#DejaVuSerif-65" transform="translate(687.988281 0)"/>
     </g>
    </g>
   </g>
  </g>
 </g>
 <defs>
  <clipPath id="p4930305645">
   <rect x="56.109375" y="7.2" width="397.17" height="270.46"/>
  </clipPath>
 </defs>
</svg>
